<svg xmlns="http://www.w3.org/2000/svg" version="1.1" xmlns:xlink="http://www.w3.org/1999/xlink" width="512" height="512" x="0" y="0" viewBox="0 0 468.293 468.293" style="enable-background:new 0 0 512 512" xml:space="preserve" class=""><g><path d="M29.525 50.447h111.996c7.335 0 14.11 3.918 17.77 10.274l18.433 25.181a20.507 20.507 0 0 0 17.77 10.274h272.798v287.495c0 15.099-12.241 27.34-27.34 27.34H27.34C12.241 411.011 0 398.77 0 383.671V128.068a205.16 205.16 0 0 1 9.68-62.276 20.505 20.505 0 0 1 19.845-15.345z" style="" fill="#f6c358" data-original="#f6c358" class=""></path><path d="M42.615 91.473h359.961v152.058H42.615z" style="" fill="#ebf0f3" data-original="#ebf0f3" class=""></path><path d="M447.788 64.117H334.927a20.504 20.504 0 0 0-18.65 11.983l-19.313 42.267a20.505 20.505 0 0 1-18.65 11.983H0v260.155c0 15.099 12.241 27.34 27.34 27.34h413.613c15.099 0 27.34-12.241 27.34-27.34V84.622c0-11.324-9.181-20.505-20.505-20.505z" style="" fill="#fcd462" data-original="#fcd462" class=""></path></g></svg>